<svg width="323" height="162" viewBox="0 0 323 162" fill="none" xmlns="http://www.w3.org/2000/svg">
<path d="M61.4186 49.4173C58.7458 50.7138 57.8141 54.1618 59.2117 57.6925C59.6776 58.8786 60.168 59.4027 63.0614 61.6646C64.8269 63.0438 67.4751 66.1884 68.7991 68.533C69.167 69.195 69.6083 70.3811 69.7554 71.1535C70.9324 77.6081 75.2725 74.1049 75.1989 66.74C75.1254 59.5131 70.8588 51.1551 66.3471 49.3898C64.974 48.8657 62.5465 48.8657 61.4186 49.4173Z" fill="#005473" fill-opacity="0.2"/>
<path d="M238.337 0.272341C235.64 1.07227 233.727 2.3963 231.006 5.37536C226.616 10.175 224.238 16.1607 224.924 20.7948C225.243 22.8636 225.709 23.8014 226.592 24.0497C227.671 24.3531 228.799 23.5256 229.657 21.8154C230.589 19.9397 231.962 18.5605 234.855 16.602C237.16 15.0573 238.46 14.4229 241.549 13.4299C243.707 12.7127 244.737 11.9403 245.742 10.2853C247.459 7.38899 247.361 4.35476 245.448 2.20321C243.805 0.355093 240.789 -0.472425 238.337 0.272341Z" fill="#005473" fill-opacity="0.2"/>
<path d="M111.856 111.318C107.081 112.617 103.752 116.427 102.968 121.564C102.503 124.566 103.189 127.279 104.951 129.53C106.959 132.099 108.795 132.85 113.986 133.138C117.365 133.311 118.344 133.485 119.935 134.12C124.636 135.996 127.256 139.604 127.305 144.279C127.33 148.782 124.661 152.476 120.009 154.323C116.459 155.738 108.942 157.325 104.192 157.672C98.5611 158.047 95.77 157.585 88.3514 154.987C83.014 153.111 81.8877 152.967 73.3429 152.88C66.5119 152.823 65.3367 152.765 63.0597 152.188C58.2119 151.004 55.0535 149.273 51.6013 145.867C40.853 135.274 32.8958 131.233 26.3096 132.965C21.8536 134.148 19.4787 137.179 19.4787 141.653C19.5032 144.395 20.7763 146.444 23.0778 147.396C23.6409 147.627 25.2813 148.031 26.7504 148.291C29.615 148.84 31.0105 149.475 31.6226 150.6C32.504 152.159 31.5002 154.439 29.3946 155.709C28.6356 156.171 27.6563 156.373 25.1099 156.575C18.989 157.037 12.7701 159.086 10.4197 161.395L9.80762 161.972L166.357 162.001C252.466 162.001 322.857 161.943 322.808 161.886C322.759 161.828 321.167 161.308 319.282 160.702C314.63 159.288 312.255 158.278 306.918 155.565C297.051 150.571 294.774 149.648 290.367 148.984C286.547 148.435 282.899 148.984 278.517 150.802C277.317 151.293 275.897 151.668 275.187 151.668C273.008 151.697 271.22 150.196 270.682 147.887C269.972 144.799 272.028 142.259 275.848 141.508C276.705 141.335 278.761 140.96 280.426 140.643C285.201 139.719 287.722 138.305 289.045 135.822C289.926 134.206 290.195 133.167 290.514 130.252C291.15 124.681 289.142 120.612 284.368 117.697C278.198 113.945 270.706 113.945 262.504 117.754C255.575 120.958 248.475 126.269 239.392 135.101C236.87 137.525 233.956 140.296 232.928 141.249C225.779 147.743 217.528 152.303 209.105 154.41C206.339 155.074 205.359 155.189 201.638 155.218C196.521 155.218 196.423 155.189 190.742 151.784C185.699 148.724 183.74 148.118 178.256 147.945C175.22 147.829 173.163 147.945 169.197 148.435C158.742 149.763 153.037 148.695 147.504 144.424C143.391 141.22 141.285 138.362 135.262 127.77C129.264 117.235 126.448 113.973 121.6 111.982C119.789 111.231 119.078 111.087 116.434 111.029C114.402 110.943 112.86 111.058 111.856 111.318Z" fill="url(#paint0_linear)" fill-opacity="0.05"/>
<path d="M195.176 54.8239C193.288 55.5963 191.376 57.803 190.002 60.8372C189.463 62.0233 189.316 62.7405 189.316 64.1473C189.316 66.3816 189.684 67.2367 190.591 67.1264C191.081 67.0712 191.4 66.7402 191.817 65.8851C192.577 64.3404 194.612 62.575 196.819 61.4992C198.903 60.5062 199.713 59.458 199.713 57.7478C199.713 56.2583 199.369 55.6515 198.168 55.017C197.015 54.4378 196.255 54.3826 195.176 54.8239Z" fill="#005473" fill-opacity="0.2"/>
<path d="M135.592 55.6238C133.017 57.2788 131.963 58.9062 131.374 62.106C131.056 63.8713 131.031 64.6161 131.276 66.4642C132.134 73.4154 135.469 79.7045 139.417 81.8009C141.869 83.0973 143.316 82.8491 143.708 81.0561C143.831 80.532 143.634 79.8148 142.972 78.3805C142.482 77.2771 141.967 75.6773 141.844 74.767C141.428 71.9534 141.55 67.7055 142.114 64.892C142.408 63.43 142.58 61.8026 142.507 61.0578C142.384 59.4579 141.379 57.4995 140.055 56.3134C139.294 55.6238 138.878 55.4583 137.602 55.4031C136.769 55.3479 135.862 55.4583 135.592 55.6238Z" fill="#005473" fill-opacity="0.2"/>
<path d="M5.14438 56.9476C2.59428 58.4371 2.34907 61.7472 4.70302 63.4574C5.26698 63.8712 5.95355 63.9815 8.82242 64.0091C12.3043 64.0642 13.8736 64.4228 14.8299 65.3883C15.026 65.5814 15.4919 65.8848 15.8843 66.0503C16.4482 66.2985 16.6444 66.2434 17.0612 65.7744C17.6742 65.0848 17.5516 64.1194 16.5708 62.1058C15.7862 60.4508 14.0943 58.8785 11.6668 57.582C9.31283 56.3132 6.68916 56.0649 5.14438 56.9476Z" fill="#005473" fill-opacity="0.2"/>
<path d="M297.352 57.9407C293.968 59.4026 291.467 62.3817 291.712 64.6711C291.86 65.94 292.448 65.9951 294.262 64.947C295.905 64.0091 295.954 64.0091 299.24 64.0091C302.796 63.9815 303.261 63.8436 304.144 62.6023C305.223 61.0576 304.512 58.713 302.673 57.6648C301.619 57.0304 299.167 57.1683 297.352 57.9407Z" fill="#005473" fill-opacity="0.2"/>
<path d="M35.4762 58.0237C33.9804 58.6306 33.3429 59.2374 32.7054 60.6166C32.1414 61.8855 32.1169 63.3474 32.6318 65.1128C33.2203 67.0161 34.4463 68.2573 36.8983 69.3883C40.4783 71.0433 44.2789 74.6844 45.603 77.7462C46.5103 79.8702 47.344 80.5046 48.3493 79.8702C49.2075 79.3185 49.6244 78.3531 49.9676 76.1188C50.6297 71.7329 48.4229 65.8024 44.4261 61.3062C41.5572 58.0789 38.345 56.8928 35.4762 58.0237Z" fill="#005473" fill-opacity="0.2"/>
<path d="M166.806 62.7678C160.627 64.0367 154.375 68.588 152.339 73.3048C150.966 76.4494 150.942 78.5182 152.241 79.4561C153.051 80.0629 154.007 79.8146 155.355 78.7113C158.249 76.3667 162.932 75.484 168.621 76.2287L172.005 76.6701L173.648 75.7046C177.277 73.6359 178.38 69.6914 176.247 66.4365C174.653 64.0091 172.618 62.823 169.724 62.6299C168.743 62.5747 167.444 62.6299 166.806 62.7678Z" fill="#005473" fill-opacity="0.2"/>
<path d="M290.094 75.5118C287.838 76.2014 283.988 81.6906 284.405 83.5939C284.7 84.9455 287.078 85.2213 290.143 84.2834C293.993 83.0698 295.341 81.7733 295.341 79.2632C295.341 76.5875 292.718 74.7118 290.094 75.5118Z" fill="#005473" fill-opacity="0.2"/>
<path d="M191.376 77.277C188.139 78.5734 183.701 84.6419 183.358 88.2554C183.21 89.7173 183.725 90.4345 185.246 90.9034C188.286 91.8137 196.451 88.8898 198.143 86.2969C199.467 84.2281 199.565 81.5525 198.388 79.6492C197.015 77.3873 193.779 76.3115 191.376 77.277Z" fill="#005473" fill-opacity="0.2"/>
<path d="M58.7946 78.0771C57.6666 78.6288 57.1517 79.6494 57.3233 81.001C57.5195 82.6836 58.0835 83.4008 60.0206 84.3938C62.0558 85.442 64.0909 87.2074 64.6059 88.3383C65.5131 90.3795 66.3713 90.6553 66.9843 89.0555C68.431 85.1386 64.0419 77.6633 60.3148 77.6909C59.9225 77.6909 59.2359 77.8564 58.7946 78.0771Z" fill="#005473" fill-opacity="0.2"/>
<path d="M87.9002 79.2907C85.816 80.1182 84.2222 82.4629 84.2222 84.6972C84.2222 86.9315 85.816 89.3037 88.1454 90.4622C91.9706 92.3931 98.0516 93.1378 99.5964 91.8414C100.209 91.3173 100.283 91.069 100.283 89.745C100.283 87.759 99.2286 85.7729 96.5559 82.7111C93.4663 79.1528 90.8181 78.1322 87.9002 79.2907Z" fill="#005473" fill-opacity="0.2"/>
<path d="M302.551 86.4349C301.006 86.5728 298.554 88.0899 297.941 89.3036C297.475 90.2415 297.45 90.3794 297.818 90.7656C298.112 91.1241 298.333 91.1241 298.995 90.8759C300.05 90.4621 302.453 90.738 304.144 91.4552C305.395 92.0068 305.469 92.0068 306.351 91.5379C306.842 91.2621 307.381 90.6828 307.553 90.269C307.847 89.607 307.822 89.3588 307.43 88.4761C306.719 86.8486 305.199 86.2142 302.551 86.4349Z" fill="#005473" fill-opacity="0.2"/>
<path d="M0.70614 88.807C-0.201109 89.6621 -0.22563 91.124 0.583539 92.117C1.88311 93.6893 6.17416 94.4617 6.591 93.2204C6.93428 92.255 5.19335 89.3586 3.77117 88.5311C2.7168 87.9243 1.46627 88.0346 0.70614 88.807Z" fill="#005473" fill-opacity="0.2"/>
<defs>
<linearGradient id="paint0_linear" x1="166.308" y1="162.001" x2="166.308" y2="111.001" gradientUnits="userSpaceOnUse">
<stop stop-color="#005473"/>
<stop offset="1" stop-color="#149DD0"/>
</linearGradient>
</defs>
</svg>
