<svg width="100" height="125" viewBox="0 0 100 125" fill="none" xmlns="http://www.w3.org/2000/svg">
<path d="M6.64983 82.59C6.39719 82.9071 6.16665 83.2413 5.95983 83.59C5.52811 84.3097 5.23316 85.1031 5.08983 85.93C4.77854 87.6474 5.0768 89.4196 5.9331 90.9405C6.78941 92.4614 8.14998 93.6355 9.77983 94.26C10.6021 94.5735 11.4704 94.7492 12.3498 94.78L14.0398 94.86L20.7898 95.13L27.5698 95.33C30.3258 95.3685 33.0567 94.8019 35.5698 93.67C38.1039 92.5343 40.365 90.8683 42.2004 88.7844C44.0359 86.7005 45.4031 84.2472 46.2098 81.59C47.145 78.3315 47.2208 74.8865 46.4298 71.59C56.0498 63.5833 65.5732 55.4833 74.9998 47.29L89.3798 34.61L90.2898 33.79C90.6798 33.43 91.0498 33.05 91.3998 32.66C92.099 31.8619 92.7092 30.9901 93.2198 30.06C94.5062 27.7187 95.132 25.0718 95.0305 22.4023C94.929 19.7328 94.1039 17.1411 92.6435 14.9042C91.183 12.6674 89.1421 10.8694 86.739 9.70268C84.3359 8.53591 81.6608 8.04416 78.9998 8.28C75.8013 8.55952 72.7848 9.88845 70.4198 12.06C70.0498 12.4 69.6298 12.83 69.3398 13.16L68.5398 14.05L55.8398 28.43C47.6132 37.9033 39.4998 47.4767 31.4998 57.15C31.2498 57.15 31.0098 57.04 30.7598 57.01C28.1238 56.6093 25.4324 56.7824 22.8694 57.5176C20.3065 58.2529 17.9325 59.5328 15.9098 61.27C13.9622 62.9435 12.3991 65.0179 11.3273 67.3513C10.2555 69.6848 9.70033 72.2222 9.69983 74.79C9.69983 75.42 10.4298 75.91 11.3598 75.9C12.2898 75.89 13.0798 75.49 13.1398 75V74.86C13.4325 72.9307 14.1211 71.0829 15.1622 69.4325C16.2034 67.7821 17.5746 66.3649 19.1898 65.27C20.7222 64.2306 22.4554 63.5236 24.2776 63.1946C26.0998 62.8657 27.9707 62.922 29.7698 63.36C31.4935 63.7507 33.1163 64.498 34.5338 65.5537C35.9512 66.6095 37.1319 67.9504 37.9998 69.49C38.8505 71.0058 39.3824 72.6795 39.5626 74.4083C39.7428 76.1371 39.5677 77.8845 39.0479 79.5431C38.5281 81.2017 37.6747 82.7366 36.54 84.0533C35.4054 85.37 34.0135 86.4409 32.4498 87.2C30.8624 87.9571 29.1373 88.3825 27.3798 88.45L20.6298 88.67L13.8898 88.94L12.2798 89C12.0382 89.0166 11.7954 88.9964 11.5598 88.94C11.0733 88.822 10.6486 88.5259 10.3698 88.11C10.0393 87.66 9.87973 87.107 9.91983 86.55C9.93867 86.2543 10.0062 85.9637 10.1198 85.69L10.3598 85.24L10.8898 84.43C12.2821 82.2091 13.0427 79.6508 13.0898 77.03V77.03C13.0898 76.38 12.2898 75.88 11.3598 75.9C10.4298 75.92 9.65983 76.3 9.55983 76.76V76.9C9.22293 78.7836 8.39117 80.5438 7.14983 82L6.64983 82.59ZM35.3298 58.26C43.8898 49.8 52.3532 41.25 60.7198 32.61L73.9298 18.73L74.7398 17.88C74.9243 17.684 75.1214 17.5003 75.3298 17.33C76.4625 16.3779 77.8511 15.7815 79.3215 15.6159C80.7918 15.4502 82.2784 15.7225 83.5945 16.3988C84.9106 17.075 85.9976 18.1249 86.7191 19.4167C87.4406 20.7086 87.7644 22.1848 87.6498 23.66C87.5699 24.7335 87.2595 25.7773 86.7398 26.72C86.476 27.1759 86.1679 27.6047 85.8198 28C85.6198 28.22 85.4898 28.36 85.2298 28.61L84.3598 29.43L70.4698 42.68C61.9232 50.9333 53.4698 59.29 45.1098 67.75C44.819 67.0306 44.485 66.3293 44.1098 65.65C42.0035 62.3504 38.9404 59.7723 35.3298 58.26V58.26Z" fill="#E3C1D7"/>
<path d="M19.3602 42C19.9563 42.0485 20.5562 41.9875 21.1302 41.82V41.82C21.9425 39.7548 22.5032 37.5993 22.8002 35.4C25.0099 35.0956 27.1752 34.5282 29.2502 33.71V33.71C29.4242 33.1406 29.4887 32.5434 29.4402 31.95C29.4893 31.3533 29.4248 30.7527 29.2502 30.18V30.18C27.1785 29.3664 25.0162 28.8057 22.8102 28.51C22.5031 26.2772 21.9221 24.0907 21.0802 22C20.5266 21.8165 19.9406 21.7518 19.3602 21.81C18.7799 21.7518 18.1939 21.8165 17.6402 22V22C16.815 24.07 16.2442 26.2324 15.9402 28.44C13.7223 28.7461 11.5498 29.3203 9.47024 30.15C9.29881 30.7096 9.23768 31.2971 9.29024 31.88C9.23822 32.4596 9.29935 33.0437 9.47024 33.6V33.6C11.5345 34.4216 13.6899 34.9924 15.8902 35.3C16.1859 37.5136 16.75 39.6829 17.5702 41.76V41.76C18.1469 41.9502 18.7539 42.0316 19.3602 42Z" fill="#8E485E" fill-opacity="0.39"/>
<path d="M75.9302 75.44C76.1869 78.6483 76.787 81.8197 77.7202 84.9C78.8767 85.2334 80.1038 85.2334 81.2602 84.9V84.9C82.1738 81.8206 82.757 78.6528 83.0002 75.45C86.2053 75.1939 89.3735 74.5937 92.4502 73.66C92.681 73.1039 92.767 72.4984 92.7002 71.9C92.7679 71.2983 92.6819 70.6894 92.4502 70.13C89.3725 69.2002 86.2047 68.6001 83.0002 68.34C82.7279 65.1347 82.1179 61.9671 81.1802 58.89C81.1802 58.75 80.3902 58.65 79.4602 58.65C78.5302 58.65 77.7602 58.75 77.7302 58.89C76.8015 61.962 76.1949 65.1224 75.9202 68.32C72.7116 68.5923 69.5408 69.2023 66.4602 70.14C66.3202 70.14 66.2202 70.94 66.2202 71.87C66.2202 72.8 66.3202 73.56 66.4602 73.59C69.543 74.5382 72.7172 75.1583 75.9302 75.44V75.44Z" fill="#8E485E" fill-opacity="0.39"/>
<path d="M51.3601 13.9C52.3001 13.9 53.0701 13.71 53.1101 13.45V13.38C53.6701 9.29 49.9301 4.71 45.0301 4.67C43.8143 4.6324 42.6035 4.84164 41.4708 5.28507C40.3382 5.72851 39.3072 6.39694 38.4401 7.25C37.5504 8.12175 36.8443 9.16282 36.3634 10.3118C35.8825 11.4608 35.6366 12.6944 35.6401 13.94C35.5301 19.06 40.2701 23.47 45.1101 23.09C49.9901 23 53.6701 18.39 53.0501 14.34C53.0501 14.08 52.2801 13.89 51.3501 13.9C50.7592 13.8411 50.1629 13.9234 49.6101 14.14V14.14C49.3257 15.023 48.7225 15.7684 47.9182 16.2307C47.1139 16.6929 46.1662 16.8388 45.2601 16.64C44.634 16.4935 44.0759 16.1396 43.6765 15.6358C43.277 15.132 43.0596 14.5079 43.0596 13.865C43.0596 13.222 43.277 12.598 43.6765 12.0942C44.0759 11.5904 44.634 11.2365 45.2601 11.09C46.1603 10.9039 47.0975 11.0587 47.8901 11.5243C48.6827 11.9899 49.2742 12.7331 49.5501 13.61C50.1228 13.8455 50.7424 13.9447 51.3601 13.9V13.9Z" fill="#8E485E" fill-opacity="0.39"/>
</svg>
